{
	"asset":{
		"generator":"Khronos glTF Blender I/O v5.0.21",
		"version":"2.0"
	},
	"scene":0,
	"scenes":[
		{
			"name":"Scene",
			"nodes":[
				0
			]
		}
	],
	"nodes":[
		{
			"mesh":0,
			"name":"Cube"
		}
	],
	"meshes":[
		{
			"name":"Cube.001",
			"primitives":[
				{
					"attributes":{
						"POSITION":0,
						"NORMAL":1,
						"TEXCOORD_0":2
					},
					"indices":3
				}
			]
		}
	],
	"accessors":[
		{
			"bufferView":0,
			"componentType":5126,
			"count":197,
			"max":[
				0.5000000596046448,
				0.5,
				0.5000000596046448
			],
			"min":[
				-0.5000000596046448,
				-0.5,
				-0.5000000596046448
			],
			"type":"VEC3"
		},
		{
			"bufferView":1,
			"componentType":5126,
			"count":197,
			"type":"VEC3"
		},
		{
			"bufferView":2,
			"componentType":5126,
			"count":197,
			"type":"VEC2"
		},
		{
			"bufferView":3,
			"componentType":5123,
			"count":378,
			"type":"SCALAR"
		}
	],
	"bufferViews":[
		{
			"buffer":0,
			"byteLength":2364,
			"byteOffset":0,
			"target":34962
		},
		{
			"buffer":0,
			"byteLength":2364,
			"byteOffset":2364,
			"target":34962
		},
		{
			"buffer":0,
			"byteLength":1576,
			"byteOffset":4728,
			"target":34962
		},
		{
			"buffer":0,
			"byteLength":756,
			"byteOffset":6304,
			"target":34963
		}
	],
	"buffers":[
		{
			"byteLength":7060,
			"uri":"block_archer-ce2ee297cf256ac94a13e9bd32155271.bin"
		}
	]
}
