{
	"asset":{
		"generator":"Khronos glTF Blender I/O v5.0.21",
		"version":"2.0"
	},
	"scene":0,
	"scenes":[
		{
			"name":"Scene",
			"nodes":[
				0
			]
		}
	],
	"nodes":[
		{
			"mesh":0,
			"name":"Cube"
		}
	],
	"meshes":[
		{
			"name":"Cube.001",
			"primitives":[
				{
					"attributes":{
						"POSITION":0,
						"NORMAL":1,
						"TEXCOORD_0":2
					},
					"indices":3
				}
			]
		}
	],
	"accessors":[
		{
			"bufferView":0,
			"componentType":5126,
			"count":229,
			"max":[
				0.5000000596046448,
				0.5,
				0.5000000596046448
			],
			"min":[
				-0.5000000596046448,
				-0.5,
				-0.8893018960952759
			],
			"type":"VEC3"
		},
		{
			"bufferView":1,
			"componentType":5126,
			"count":229,
			"type":"VEC3"
		},
		{
			"bufferView":2,
			"componentType":5126,
			"count":229,
			"type":"VEC2"
		},
		{
			"bufferView":3,
			"componentType":5123,
			"count":426,
			"type":"SCALAR"
		}
	],
	"bufferViews":[
		{
			"buffer":0,
			"byteLength":2748,
			"byteOffset":0,
			"target":34962
		},
		{
			"buffer":0,
			"byteLength":2748,
			"byteOffset":2748,
			"target":34962
		},
		{
			"buffer":0,
			"byteLength":1832,
			"byteOffset":5496,
			"target":34962
		},
		{
			"buffer":0,
			"byteLength":852,
			"byteOffset":7328,
			"target":34963
		}
	],
	"buffers":[
		{
			"byteLength":8180,
			"uri":"block_spear-7517fe7d61b8667f3d95aae42b4ea61d.bin"
		}
	]
}
